<svg width="176" height="90" viewBox="0 0 176 90" fill="none" xmlns="http://www.w3.org/2000/svg">
<rect width="176" height="90" fill="white"/>
<path d="M54.96 33.056C58.16 33.056 61.0613 33.8027 63.664 35.296C66.3093 36.7467 68.3787 38.816 69.872 41.504C71.3653 44.1493 72.112 47.2427 72.112 50.784C72.112 54.3253 71.3653 57.44 69.872 60.128C68.3787 62.7733 66.3093 64.8427 63.664 66.336C61.0613 67.7867 58.16 68.512 54.96 68.512C50.224 68.512 46.6187 67.0187 44.144 64.032V68H34.608V20.512H44.592V37.216C47.1093 34.4427 50.5653 33.056 54.96 33.056ZM53.232 60.32C55.792 60.32 57.8827 59.4667 59.504 57.76C61.168 56.0107 62 53.6853 62 50.784C62 47.8827 61.168 45.5787 59.504 43.872C57.8827 42.1227 55.792 41.248 53.232 41.248C50.672 41.248 48.56 42.1227 46.896 43.872C45.2747 45.5787 44.464 47.8827 44.464 50.784C44.464 53.6853 45.2747 56.0107 46.896 57.76C48.56 59.4667 50.672 60.32 53.232 60.32ZM78.7955 33.568H88.7795V68H78.7955V33.568ZM83.7875 28.768C81.9528 28.768 80.4595 28.2347 79.3075 27.168C78.1555 26.1013 77.5795 24.7787 77.5795 23.2C77.5795 21.6213 78.1555 20.2987 79.3075 19.232C80.4595 18.1653 81.9528 17.632 83.7875 17.632C85.6222 17.632 87.1155 18.144 88.2675 19.168C89.4195 20.192 89.9955 21.472 89.9955 23.008C89.9955 24.672 89.4195 26.0587 88.2675 27.168C87.1155 28.2347 85.6222 28.768 83.7875 28.768ZM126.718 60.32V68H95.9975V61.984L102.845 53.92H98.1735V47.264H108.478L113.534 41.248H96.4455V33.568H126.142V39.584L119.614 47.328H124.478V53.984H113.982L108.606 60.32H126.718ZM137.572 68.512C135.822 68.512 134.35 67.9147 133.156 66.72C131.961 65.5253 131.364 64.032 131.364 62.24C131.364 60.4053 131.961 58.9333 133.156 57.824C134.35 56.672 135.822 56.096 137.572 56.096C139.321 56.096 140.793 56.672 141.988 57.824C143.182 58.9333 143.78 60.4053 143.78 62.24C143.78 64.032 143.182 65.5253 141.988 66.72C140.793 67.9147 139.321 68.512 137.572 68.512Z" fill="#409931"/>
</svg>
